<mxfile host="65bd71144e">
    <diagram id="ERRANNHULU-bSqBF8AOw" name="Pagina-1">
        <mxGraphModel dx="771" dy="507" grid="1" gridSize="10" guides="1" tooltips="1" connect="1" arrows="1" fold="1" page="1" pageScale="1" pageWidth="1169" pageHeight="827" math="0" shadow="0">
            <root>
                <mxCell id="0"/>
                <mxCell id="1" parent="0"/>
                <mxCell id="10" style="edgeStyle=none;html=1;entryX=0.5;entryY=1;entryDx=0;entryDy=0;" edge="1" parent="1" source="5" target="9">
                    <mxGeometry relative="1" as="geometry">
                        <Array as="points">
                            <mxPoint x="590" y="185"/>
                            <mxPoint x="590" y="260"/>
                        </Array>
                    </mxGeometry>
                </mxCell>
                <mxCell id="5" value="Encoder Target" style="rounded=1;arcSize=10;whiteSpace=wrap;html=1;align=center;dashed=1;fillColor=none;" vertex="1" parent="1">
                    <mxGeometry x="410" y="150" width="140" height="70" as="geometry"/>
                </mxCell>
                <mxCell id="11" style="edgeStyle=none;html=1;entryX=0.5;entryY=1;entryDx=0;entryDy=0;exitX=1;exitY=0.5;exitDx=0;exitDy=0;" edge="1" parent="1" source="6" target="9">
                    <mxGeometry relative="1" as="geometry">
                        <Array as="points">
                            <mxPoint x="590" y="315"/>
                            <mxPoint x="590" y="260"/>
                        </Array>
                    </mxGeometry>
                </mxCell>
                <mxCell id="14" style="edgeStyle=none;html=1;entryX=1;entryY=0.5;entryDx=0;entryDy=0;endArrow=none;endFill=0;" edge="1" parent="1" source="6" target="12">
                    <mxGeometry relative="1" as="geometry"/>
                </mxCell>
                <mxCell id="6" value="Encoder Ngbrs" style="rounded=1;arcSize=10;whiteSpace=wrap;html=1;align=center;dashed=1;fillColor=none;" vertex="1" parent="1">
                    <mxGeometry x="410" y="280" width="140" height="70" as="geometry"/>
                </mxCell>
                <mxCell id="16" style="edgeStyle=none;html=1;endArrow=none;endFill=0;" edge="1" parent="1" source="9" target="15">
                    <mxGeometry relative="1" as="geometry"/>
                </mxCell>
                <mxCell id="9" value="Concat" style="whiteSpace=wrap;html=1;align=center;fillColor=none;direction=south;" vertex="1" parent="1">
                    <mxGeometry x="640" y="210" width="40" height="100" as="geometry"/>
                </mxCell>
                <mxCell id="12" value="FC" style="whiteSpace=wrap;html=1;align=center;fillColor=none;" vertex="1" parent="1">
                    <mxGeometry x="170" y="295" width="170" height="40" as="geometry"/>
                </mxCell>
                <mxCell id="17" style="edgeStyle=none;html=1;endArrow=none;endFill=0;" edge="1" parent="1" source="15">
                    <mxGeometry relative="1" as="geometry">
                        <mxPoint x="960" y="260" as="targetPoint"/>
                    </mxGeometry>
                </mxCell>
                <mxCell id="15" value="Decoder" style="rounded=1;arcSize=10;whiteSpace=wrap;html=1;align=center;dashed=1;fillColor=none;" vertex="1" parent="1">
                    <mxGeometry x="760" y="225" width="140" height="70" as="geometry"/>
                </mxCell>
                <mxCell id="18" value="FC" style="whiteSpace=wrap;html=1;align=center;fillColor=none;" vertex="1" parent="1">
                    <mxGeometry x="960" y="240" width="170" height="40" as="geometry"/>
                </mxCell>
            </root>
        </mxGraphModel>
    </diagram>
</mxfile>